<svg width="264" height="60" viewBox="0 0 264 60" fill="none" xmlns="http://www.w3.org/2000/svg">
<path d="M249.601 29.1837L245.304 29.0355L246.786 24.993C247.103 24.1464 246.659 23.2151 245.812 22.8977C244.965 22.5802 244.034 23.0246 243.717 23.8712L242.235 27.9138L238.849 25.2682C238.129 24.7179 237.113 24.8448 236.563 25.5433C236.013 26.2629 236.139 27.2788 236.838 27.8291L240.224 30.4748L236.647 32.8876C235.907 33.3956 235.695 34.4115 236.203 35.1523C236.52 35.6179 237.028 35.8719 237.558 35.8719C237.875 35.8719 238.193 35.7872 238.468 35.5967L242.045 33.1839L243.23 37.3323C243.441 38.0519 244.098 38.5175 244.796 38.5175C244.944 38.5175 245.092 38.5175 245.241 38.454C246.108 38.2 246.616 37.2899 246.362 36.4433L245.177 32.295L249.474 32.4431C249.474 32.4431 249.516 32.4431 249.537 32.4431C250.405 32.4431 251.146 31.7447 251.167 30.8557C251.209 29.9456 250.489 29.2049 249.601 29.1625V29.1837Z" fill="#5185C5"/>
<path d="M251.251 12.6112L246.701 9.54229L251.04 6.15587C251.886 5.47858 252.034 4.25101 251.378 3.4044C250.701 2.55779 249.473 2.40964 248.627 3.06576L244.288 6.45218L242.404 1.28789C242.023 0.27196 240.902 -0.257169 239.886 0.123803C238.87 0.504776 238.341 1.62653 238.722 2.64246L240.605 7.80675L235.123 7.99723C234.044 8.03956 233.197 8.94967 233.24 10.0291C233.282 11.0873 234.15 11.9128 235.208 11.9128C235.229 11.9128 235.25 11.9128 235.272 11.9128L240.753 11.7223L239.23 17.0136C238.933 18.0507 239.526 19.1301 240.584 19.4476C240.775 19.4899 240.944 19.5322 241.134 19.5322C241.981 19.5322 242.764 18.9819 243.018 18.1142L244.542 12.8229L249.092 15.8918C249.431 16.1247 249.812 16.2305 250.193 16.2305C250.828 16.2305 251.442 15.9342 251.823 15.3627C252.437 14.4738 252.183 13.2462 251.294 12.6324L251.251 12.6112Z" fill="#F45197"/>
<path d="M263.146 18.2835C262.829 17.6274 262.046 17.3734 261.39 17.6909L258.596 19.0455L258.172 15.9765C258.067 15.2569 257.411 14.7701 256.691 14.8548C255.971 14.9606 255.484 15.6167 255.569 16.3363L255.992 19.4053L252.945 18.8761C252.246 18.7491 251.548 19.2359 251.421 19.9344C251.294 20.6328 251.781 21.3313 252.479 21.4583L255.527 21.9874L254.066 24.7389C253.728 25.3738 253.961 26.1781 254.617 26.5168C254.807 26.6226 255.019 26.6649 255.231 26.6649C255.696 26.6649 256.162 26.4109 256.395 25.9665L257.855 23.215L260.014 25.4585C260.268 25.7336 260.606 25.8606 260.945 25.8606C261.284 25.8606 261.601 25.7336 261.855 25.5008C262.384 24.9929 262.384 24.1674 261.898 23.6595L259.739 21.416L262.533 20.0614C263.189 19.7439 263.443 18.9608 263.125 18.3047L263.146 18.2835Z" fill="#7FBE26"/>
<path d="M171.84 47.6607L161.702 30.3899V19.9344C161.702 18.22 160.326 16.8442 158.612 16.8442C156.897 16.8442 155.522 18.2411 155.522 19.9344V30.3899L145.383 47.4702C144.537 48.9094 145.002 50.772 146.442 51.6186C147.881 52.4652 149.743 51.9995 150.59 50.5603L158.569 37.0781L166.591 50.7296C167.162 51.6821 168.178 52.2324 169.215 52.2324C169.745 52.2324 170.274 52.1054 170.739 51.8091C172.179 50.9624 172.665 49.0999 171.819 47.6607H171.84Z" fill="#666464"/>
<path d="M183.121 16.8232C181.449 16.8232 180.094 18.1778 180.094 19.8499V27.3212H172.03C170.358 27.3212 169.003 28.6757 169.003 30.3478C169.003 32.0198 170.358 33.3744 172.03 33.3744H180.094V56.9735C180.094 58.6456 181.449 60.0001 183.121 60.0001C184.793 60.0001 186.147 58.6456 186.147 56.9735V19.871C186.147 18.199 184.793 16.8444 183.121 16.8444V16.8232Z" fill="#666464"/>
<path d="M231.525 52.3168H215.673V45.671C215.673 44.0624 214.276 42.729 212.562 42.729C210.847 42.729 209.45 44.0412 209.45 45.671V52.3168H193.979C192.433 52.3168 191.164 53.5867 191.164 55.1318C191.164 56.6768 192.433 57.9467 193.979 57.9467H231.525C233.071 57.9467 234.34 56.6768 234.34 55.1318C234.34 53.5867 233.071 52.3168 231.525 52.3168Z" fill="#666464"/>
<path d="M230.255 22.411C230.023 21.6914 229.494 21.0564 228.795 20.6755C228.097 20.3156 227.271 20.231 226.552 20.4426L215.461 24.1677V15.4265C215.461 13.7968 214.128 12.4634 212.498 12.4634C210.868 12.4634 209.535 13.7968 209.535 15.4265V24.083L198.614 20.485C198.317 20.3791 198 20.3368 197.682 20.3368C196.391 20.3368 195.27 21.1623 194.867 22.3687C194.613 23.1306 194.677 23.9349 195.037 24.6333C195.397 25.3318 196.01 25.8609 196.751 26.1149L207.672 29.713L196.455 41.121C195.989 41.7559 195.799 42.539 195.904 43.3222C196.031 44.1053 196.434 44.8037 197.069 45.2693C198.296 46.1794 199.841 45.9466 201.217 44.6556L212.456 33.2264L223.483 44.5709C224.329 45.3328 224.901 45.8196 225.895 45.8196C226.509 45.8196 227.102 45.6292 227.61 45.2693C228.266 44.8037 228.689 44.1264 228.816 43.3433C228.943 42.5602 228.774 41.7771 228.308 41.121L217.302 29.8188L228.287 26.1361C229.853 25.6493 230.742 23.9984 230.255 22.4322V22.411Z" fill="#666464"/>
<path d="M45.9919 31.914H29.1233V30.0938H36.4888V27.0883H38.6476V30.0938H46.0131V31.914H45.9919ZM42.8806 22.3262C42.8806 23.5749 42.3727 24.6332 41.3779 25.4798C40.362 26.3264 39.1132 26.7497 37.6105 26.7497C36.1078 26.7497 34.7744 26.3264 33.8008 25.4798C32.8484 24.6332 32.3616 23.5749 32.3616 22.3262C32.3616 21.0774 32.8484 20.0827 33.8008 19.2149C34.7532 18.3471 36.0231 17.9238 37.6105 17.9238C39.1979 17.9238 40.3831 18.3471 41.3779 19.2149C42.3727 20.0827 42.8806 21.1198 42.8806 22.3262ZM40.7218 22.3262C40.7218 21.6277 40.4255 21.0139 39.854 20.506C39.2614 19.998 38.5206 19.744 37.5893 19.744C36.6581 19.744 35.875 19.998 35.3247 20.506C34.7744 21.0139 34.4992 21.6277 34.4992 22.3262C34.4992 23.0881 34.7744 23.7231 35.3247 24.2099C35.875 24.6967 36.6369 24.9295 37.5893 24.9295C38.5418 24.9295 39.2614 24.6967 39.854 24.2099C40.4466 23.7231 40.7218 23.1093 40.7218 22.3262Z" fill="#595757"/>
<path d="M46.4153 24.0618H63.2839V25.8608H46.4153V24.0618ZM60.0245 34.7078H50.0345V30.0092H57.4423V28.9721H49.9075V27.2154H59.58V31.7659H52.1722V32.93H60.0245V34.7078ZM59.7917 22.7707H50.0769V16.6328H52.2357V21.014H59.8128V22.7919L59.7917 22.7707Z" fill="#595757"/>
<path d="M79.5385 21.7122H75.5806C74.7764 21.8392 74.2049 22.072 73.8874 22.4319C73.4218 22.9398 73.1678 23.4901 73.1678 24.0404C73.1678 24.5695 73.3371 25.014 73.697 25.4161C74.0568 25.8183 74.4801 26.0088 74.988 26.0088C75.5807 26.0088 76.0463 25.8183 76.4273 25.4373C76.7871 25.0563 76.9775 24.5907 76.9775 24.0827C76.9775 23.9346 76.9352 23.7441 76.8506 23.5324C76.7659 23.3208 76.5966 23.1091 76.3426 22.8975L77.9088 21.9027C78.3321 22.3049 78.6073 22.6858 78.7554 23.0033C78.9036 23.3208 78.9671 23.6806 78.9671 24.0404C78.9671 25.0563 78.5861 25.9241 77.8242 26.6437C77.0622 27.3633 76.1098 27.7443 74.9669 27.7443C73.8239 27.7443 72.935 27.3633 72.1942 26.6226C71.4534 25.8818 71.0936 25.014 71.0936 24.0404C71.0936 23.2361 71.4111 22.4742 72.0249 21.7334H70.0989V20.019H79.4962V21.7334L79.5385 21.7122ZM77.9723 19.1936H74.6917C73.5911 19.1936 72.554 18.9184 71.5593 18.3681L72.1942 16.8654C73.3795 17.2041 74.3107 17.3945 74.9669 17.3945H77.9723V19.1936ZM85.0626 31.1942C85.0626 32.189 84.6605 33.0779 83.8562 33.8187C83.0519 34.5806 81.9725 34.9616 80.5968 34.9616C79.2211 34.9616 78.1628 34.5806 77.3797 33.8187C76.5754 33.0568 76.1944 32.189 76.1944 31.1942C76.1944 30.1995 76.5966 29.3317 77.3797 28.5697C78.1628 27.8078 79.2422 27.4268 80.5968 27.4268C81.9514 27.4268 83.0308 27.8078 83.8351 28.5697C84.6393 29.3317 85.0415 30.1995 85.0415 31.1942H85.0626ZM82.9461 31.1942C82.9461 30.7074 82.7556 30.263 82.3535 29.8397C81.9514 29.4164 81.3799 29.2047 80.5968 29.2047C79.8137 29.2047 79.2634 29.4164 78.8612 29.8397C78.4803 30.263 78.2898 30.7074 78.2898 31.1942C78.2898 31.681 78.4803 32.1467 78.8612 32.5488C79.2422 32.9509 79.8137 33.1626 80.5968 33.1626C81.3799 33.1626 81.9514 32.9509 82.3535 32.5488C82.7556 32.1467 82.9461 31.681 82.9461 31.2154V31.1942ZM83.6869 27.7866V22.7917H82.1207V26.9824H80.11V16.6114H82.1207V20.9926H83.6869V16.2305H85.7188V27.7866H83.6869Z" fill="#595757"/>
<path d="M100.767 24.2521H97.1269V25.5855H104.492V27.4057H87.6238V25.5855H94.9892V24.2521H91.2642V16.7173H93.3807V18.8973H98.6931V16.7173H100.788V24.2521H100.767ZM100.704 34.8981H98.6085V30.6439H91.0314V28.8449H100.704V34.9193V34.8981ZM98.672 22.453V20.6752H93.3595V22.453H98.672Z" fill="#595757"/>
<path d="M115.795 22.6012H110.651C109.995 22.7493 109.508 23.0033 109.17 23.342C108.577 23.9769 108.281 24.633 108.281 25.3526C108.281 26.0299 108.514 26.5802 108.958 26.9824C109.403 27.3845 109.911 27.5961 110.461 27.5961C111.011 27.5961 111.498 27.3845 111.942 26.9824C112.387 26.5802 112.599 26.0299 112.599 25.3738C112.599 24.8447 112.302 24.3367 111.71 23.8288L113.276 22.7282C114.228 23.4478 114.715 24.3156 114.715 25.3315C114.715 26.4744 114.292 27.448 113.466 28.2311C112.641 29.0142 111.646 29.3952 110.461 29.3952C109.276 29.3952 108.281 29.0142 107.434 28.2311C106.588 27.448 106.186 26.4956 106.186 25.3315C106.186 24.2732 106.588 23.3631 107.371 22.5588H105.085V20.8021H115.795V22.5588V22.6012ZM113.763 19.5746H110.143C109.001 19.5746 107.942 19.2994 106.947 18.7491L107.604 17.2252C108.789 17.5639 109.72 17.7332 110.397 17.7332H113.742V19.5534L113.763 19.5746ZM121.911 25.1198H119.117V34.0304H117.001V16.2305H119.117V23.215H121.911V25.1198Z" fill="#595757"/>
<path d="M139.182 31.9139H122.313V30.0937H128.324V24.1675H130.483V30.0937H139.182V31.9139ZM135.605 21.67C135.584 23.7018 135.267 25.8184 134.653 28.0619H132.494C133.15 25.7125 133.489 23.5748 133.489 21.6488V19.9768H125.15V18.1777H135.605V21.67Z" fill="#595757"/>
<path d="M7.57712 51.4281H0V41.4593H2.11651V49.629H7.57712V51.4281ZM10.6249 45.7982H12.7202V39.2793H14.7521V57.0792H12.7202V47.6184H10.6249V55.9363H8.61421V39.6603H10.6249V45.7982Z" fill="#595757"/>
<path d="M17.1648 44.4013C17.1648 43.2372 17.5881 42.2424 18.4135 41.4593C19.2601 40.655 20.2972 40.2529 21.5671 40.2529C22.8371 40.2529 23.9165 40.655 24.7631 41.4593C25.6097 42.2636 26.033 43.2372 26.033 44.4013C26.033 45.5653 25.6097 46.5601 24.7631 47.3432C23.9165 48.1475 22.8582 48.5496 21.5671 48.5496C20.2761 48.5496 19.239 48.1475 18.4135 47.3432C17.5669 46.5389 17.1648 45.5653 17.1648 44.4013ZM21.5671 46.7718C22.2656 46.7718 22.8159 46.5389 23.2604 46.0945C23.7048 45.65 23.9165 45.0785 23.9165 44.4224C23.9165 43.7663 23.7048 43.1948 23.2604 42.7504C22.8159 42.3059 22.2656 42.0731 21.5671 42.0731C20.8687 42.0731 20.3396 42.3059 19.8951 42.7504C19.4718 43.1948 19.2601 43.7663 19.2601 44.4224C19.2601 45.0785 19.4718 45.65 19.8951 46.0945C20.3184 46.5389 20.8687 46.7718 21.5671 46.7718ZM31.3666 57.7565H21.5036V52.698H28.7633V51.4704H21.419V49.6714H30.8586V54.497H23.599V55.9574H31.3666V57.7565ZM28.9749 49.1423V39.2793H31.0703V49.1423H28.9749Z" fill="#595757"/>
<path d="M43.0501 46.5599C43.0501 47.9145 42.5845 49.0574 41.6321 49.9464C40.7008 50.8565 39.5579 51.3009 38.2245 51.2798C36.8699 51.2798 35.7482 50.8141 34.8169 49.9252C33.8856 49.0363 33.4412 47.9145 33.4412 46.5599C33.4412 45.2054 33.9068 44.1048 34.8169 43.1947C35.727 42.2846 36.8699 41.8401 38.2245 41.8401C39.5791 41.8401 40.7008 42.2846 41.6321 43.1947C42.5633 44.1048 43.0501 45.2265 43.0501 46.5599ZM40.9336 46.5599C40.9336 45.7345 40.6585 45.036 40.1293 44.4646C39.6002 43.8931 38.9653 43.618 38.2245 43.6391C37.4625 43.6391 36.8276 43.9355 36.3196 44.4858C35.8117 45.036 35.5577 45.7345 35.5577 46.5599C35.5577 47.3854 35.8117 48.1262 36.3196 48.6765C36.8276 49.2267 37.4625 49.5019 38.2245 49.5019C38.9864 49.5019 39.6002 49.2267 40.1293 48.6765C40.6585 48.1262 40.9336 47.4277 40.9336 46.5599ZM47.4102 57.1002H45.3148V39.3003H47.4102V57.1002Z" fill="#595757"/>
<path d="M65.0828 41.6708C64.4479 45.9885 62.162 49.7135 58.183 52.8248L56.6379 51.5337C59.9397 48.9093 61.9504 46.2213 62.67 43.4698H56.8073V41.6708H65.0617H65.0828ZM70.0566 57.1002H67.9613V39.3003H70.0566V57.1002Z" fill="#595757"/>
<path d="M82.2479 51.5127H72.9988V41.6075H80.9569V43.4065H75.0941V49.7137H82.2479V51.5127ZM88.9785 47.3855H85.9518V57.0792H83.8565V39.2793H85.9518V45.4807H88.9785V47.3855Z" fill="#595757"/>
<path d="M99.8573 52.2957H90.3118V45.925H96.0052V43.2582H90.2483V41.4591H98.1006V47.7452H92.4071V50.5178H99.8573V52.3169V52.2957ZM104.069 57.1002H101.995V49.5442H98.8413V47.7452H101.995V45.544H98.8413V43.745H101.995V39.3003H104.069V57.1002Z" fill="#595757"/>
<path d="M113.043 46.9409L117.107 50.7083L115.625 51.9994L111.879 48.486C110.736 49.8405 109.276 51.0893 107.498 52.2957L106.122 50.9623C109.741 48.4225 111.879 45.9038 112.514 43.4063H107.18V41.6285H115.011C114.779 43.5122 114.122 45.29 113.022 46.9409H113.043ZM120.387 57.1002H118.292V39.3003H120.387V57.1002Z" fill="#595757"/>
<path d="M122.313 48.4013H139.182V50.2427H122.313V48.4013ZM135.669 46.7716H125.954V39.8506H128.113V44.9514H135.69V46.7504L135.669 46.7716ZM136.092 57.5658H125.975V51.8301H128.113V55.7668H136.113V57.5658H136.092Z" fill="#595757"/>
</svg>
