<svg width="45" height="45" viewBox="0 0 45 45" fill="none" xmlns="http://www.w3.org/2000/svg">
<circle cx="22.5" cy="22.5" r="22.5" fill="black"/>
<path d="M35.0832 22.6864L33.9114 22.646L34.3155 21.5435C34.4021 21.3126 34.2808 21.0586 34.0499 20.972C33.8191 20.8855 33.5651 21.0067 33.4785 21.2376L33.0744 22.3401L32.1509 21.6185C31.9546 21.4685 31.6775 21.5031 31.5274 21.6936C31.3774 21.8898 31.412 22.1669 31.6025 22.317L32.5261 23.0385L31.5505 23.6966C31.3485 23.8351 31.2908 24.1122 31.4293 24.3142C31.5159 24.4412 31.6544 24.5105 31.7987 24.5105C31.8853 24.5105 31.9719 24.4874 32.047 24.4354L33.0225 23.7774L33.3457 24.9088C33.4034 25.105 33.5824 25.232 33.7729 25.232C33.8133 25.232 33.8537 25.232 33.8941 25.2147C34.1308 25.1454 34.2693 24.8972 34.2 24.6663L33.8768 23.535L35.0486 23.5754C35.0486 23.5754 35.0601 23.5754 35.0659 23.5754C35.3025 23.5754 35.5046 23.3849 35.5103 23.1424C35.5219 22.8942 35.3256 22.6922 35.0832 22.6807V22.6864Z" fill="#5185C5"/>
<path d="M35.5335 18.1667L34.2924 17.3297L35.4758 16.4061C35.7067 16.2214 35.7471 15.8866 35.5681 15.6557C35.3834 15.4249 35.0486 15.3844 34.8177 15.5634L33.6344 16.487L33.1207 15.0785C33.0168 14.8014 32.7108 14.6571 32.4338 14.761C32.1567 14.8649 32.0124 15.1709 32.1163 15.4479L32.63 16.8564L31.135 16.9083C30.8406 16.9199 30.6097 17.1681 30.6213 17.4625C30.6328 17.7511 30.8695 17.9762 31.1581 17.9762C31.1639 17.9762 31.1696 17.9762 31.1754 17.9762L32.6704 17.9243L32.2548 19.3673C32.174 19.6502 32.3356 19.9446 32.6243 20.0312C32.6762 20.0427 32.7224 20.0542 32.7743 20.0542C33.0052 20.0542 33.2188 19.9042 33.2881 19.6675L33.7037 18.2244L34.9447 19.0614C35.0371 19.1249 35.141 19.1538 35.2449 19.1538C35.4181 19.1538 35.5855 19.073 35.6894 18.9171C35.8568 18.6747 35.7875 18.3399 35.545 18.1725L35.5335 18.1667Z" fill="#F45197"/>
<path d="M38.7776 19.7137C38.691 19.5347 38.4774 19.4655 38.2985 19.5521L37.5365 19.9215L37.4211 19.0845C37.3922 18.8882 37.2133 18.7555 37.017 18.7786C36.8208 18.8074 36.688 18.9864 36.7111 19.1826L36.8265 20.0196L35.9953 19.8753C35.8048 19.8407 35.6144 19.9734 35.5797 20.1639C35.5451 20.3544 35.6779 20.5449 35.8683 20.5795L36.6996 20.7238L36.3013 21.4742C36.2089 21.6474 36.2724 21.8668 36.4513 21.9591C36.5033 21.988 36.561 21.9995 36.6187 21.9995C36.7457 21.9995 36.8727 21.9302 36.9362 21.809L37.3345 21.0586L37.9233 21.6705C37.9925 21.7455 38.0849 21.7802 38.1773 21.7802C38.2696 21.7802 38.3562 21.7455 38.4255 21.682C38.5698 21.5435 38.5698 21.3184 38.437 21.1798L37.8482 20.568L38.6102 20.1986C38.7891 20.112 38.8584 19.8984 38.7718 19.7195L38.7776 19.7137Z" fill="#7FBE26"/>
<path d="M13.8758 27.7257L11.1109 23.0154V20.1639C11.1109 19.6964 10.7357 19.3212 10.2681 19.3212C9.80058 19.3212 9.42538 19.7021 9.42538 20.1639V23.0154L6.66044 27.6737C6.42955 28.0662 6.55654 28.5742 6.94906 28.8051C7.34158 29.036 7.84954 28.909 8.08043 28.5165L10.2566 24.8395L12.4443 28.5626C12.6002 28.8224 12.8772 28.9725 13.1601 28.9725C13.3044 28.9725 13.4487 28.9378 13.5757 28.857C13.9682 28.6261 14.101 28.1182 13.8701 27.7257H13.8758Z" fill="white"/>
<path d="M16.9524 19.3154C16.4964 19.3154 16.127 19.6848 16.127 20.1408V22.1785H13.9277C13.4717 22.1785 13.1023 22.5479 13.1023 23.0039C13.1023 23.4599 13.4717 23.8293 13.9277 23.8293H16.127V30.2655C16.127 30.7215 16.4964 31.0909 16.9524 31.0909C17.4084 31.0909 17.7779 30.7215 17.7779 30.2655V20.1466C17.7779 19.6906 17.4084 19.3212 16.9524 19.3212V19.3154Z" fill="white"/>
<path d="M30.1538 28.9956H25.8303V27.1831C25.8303 26.7444 25.4494 26.3807 24.9818 26.3807C24.5142 26.3807 24.1333 26.7386 24.1333 27.1831V28.9956H19.9137C19.4923 28.9956 19.146 29.3419 19.146 29.7633C19.146 30.1847 19.4923 30.531 19.9137 30.531H30.1538C30.5752 30.531 30.9215 30.1847 30.9215 29.7633C30.9215 29.3419 30.5752 28.9956 30.1538 28.9956Z" fill="white"/>
<path d="M29.8075 20.8393C29.744 20.643 29.5997 20.4699 29.4092 20.366C29.2187 20.2678 28.9936 20.2447 28.7973 20.3025L25.7727 21.3184V18.9344C25.7727 18.49 25.409 18.1263 24.9645 18.1263C24.5201 18.1263 24.1564 18.49 24.1564 18.9344V21.2953L21.1779 20.314C21.0971 20.2851 21.0105 20.2736 20.9239 20.2736C20.5718 20.2736 20.2659 20.4987 20.1562 20.8277C20.0869 21.0355 20.1042 21.2549 20.2024 21.4454C20.3005 21.6359 20.4679 21.7802 20.6699 21.8494L23.6484 22.8307L20.5891 25.942C20.4621 26.1152 20.4102 26.3288 20.439 26.5423C20.4737 26.7559 20.5833 26.9464 20.7565 27.0734C21.0913 27.3216 21.5127 27.2581 21.8879 26.906L24.953 23.7889L27.9604 26.8829C28.1913 27.0907 28.3471 27.2235 28.6184 27.2235C28.7858 27.2235 28.9474 27.1715 29.086 27.0734C29.2649 26.9464 29.3803 26.7617 29.415 26.5481C29.4496 26.3345 29.4034 26.1209 29.2764 25.942L26.2748 22.8596L29.2707 21.8552C29.6978 21.7224 29.9403 21.2722 29.8075 20.8451V20.8393Z" fill="white"/>
</svg>
