<svg width="15" height="12" viewBox="0 0 15 12" fill="none" xmlns="http://www.w3.org/2000/svg">
<path d="M13.1427 0.571289H6.74365C6.48365 0.571289 6.32271 0.842721 6.4389 1.0751C6.77318 1.74177 6.92269 2.51796 6.82936 3.3351C6.62269 5.14844 5.14365 6.62462 3.33032 6.82938C2.51414 6.92176 1.74081 6.77225 1.0751 6.43892C0.84272 6.32273 0.571289 6.48368 0.571289 6.74368V10.857C0.571289 11.4856 1.08557 11.9999 1.71414 11.9999H13.1427C13.7712 11.9999 14.2855 11.4856 14.2855 10.857V1.71415C14.2855 1.08557 13.7712 0.571289 13.1427 0.571289ZM11.4284 9.71415H3.42842C3.11414 9.71415 2.85699 9.45701 2.85699 9.14272C2.85699 8.82843 3.11414 8.57129 3.42842 8.57129H11.4284C11.7427 8.57129 11.9998 8.82843 11.9998 9.14272C11.9998 9.45701 11.7427 9.71415 11.4284 9.71415ZM11.4284 6.85701H7.42841C7.11412 6.85701 6.85698 6.59986 6.85698 6.28558C6.85698 5.97129 7.11412 5.71415 7.42841 5.71415H11.4284C11.7427 5.71415 11.9998 5.97129 11.9998 6.28558C11.9998 6.59986 11.7427 6.85701 11.4284 6.85701ZM11.4284 3.99986H8.57126C8.25697 3.99986 7.99983 3.74272 7.99983 3.42843C7.99983 3.11415 8.25697 2.857 8.57126 2.857H11.4284C11.7427 2.857 11.9998 3.11415 11.9998 3.42843C11.9998 3.74272 11.7427 3.99986 11.4284 3.99986Z" fill="black"/>
<path d="M5.71426 2.85714C5.71426 4.43429 4.43427 5.71429 2.85713 5.71429C1.28 5.71429 0 4.43429 0 2.85714C0 1.28 1.28 0 2.85713 0C4.43427 0 5.71426 1.28 5.71426 2.85714Z" fill="#F45197"/>
</svg>
