<svg width="22" height="25" viewBox="0 0 22 25" fill="none" xmlns="http://www.w3.org/2000/svg">
<path d="M18.4442 25L11.4443 18C10.8888 18.4444 10.2499 18.7963 9.52767 19.0556C8.80546 19.3148 8.03695 19.4444 7.22214 19.4444C5.20365 19.4444 3.49533 18.7454 2.0972 17.3472C0.699066 15.9491 0 14.2407 0 12.2222C0 10.2037 0.699066 8.49537 2.0972 7.09722C3.49533 5.69907 5.20365 5 7.22214 5C9.24064 5 10.949 5.69907 12.3471 7.09722C13.7452 8.49537 14.4443 10.2037 14.4443 12.2222C14.4443 13.037 14.3147 13.8056 14.0554 14.5278C13.7961 15.25 13.4443 15.8889 12.9999 16.4444L19.9998 23.4444L18.4442 25ZM7.22214 17.2222C8.61101 17.2222 9.79156 16.7361 10.7638 15.7639C11.736 14.7917 12.2221 13.6111 12.2221 12.2222C12.2221 10.8333 11.736 9.65278 10.7638 8.68056C9.79156 7.70833 8.61101 7.22222 7.22214 7.22222C5.83327 7.22222 4.65273 7.70833 3.68051 8.68056C2.7083 9.65278 2.2222 10.8333 2.2222 12.2222C2.2222 13.6111 2.7083 14.7917 3.68051 15.7639C4.65273 16.7361 5.83327 17.2222 7.22214 17.2222Z" fill="#111"/>
<path d="M16.3333 0C16.4867 2.83263e-05 16.6199 0.105855 16.6565 0.254883C16.6567 0.25537 16.6581 0.255777 16.6584 0.256836C16.6591 0.259414 16.659 0.264036 16.6604 0.269531C16.6633 0.280905 16.668 0.29872 16.6741 0.321289C16.6864 0.366763 16.7057 0.433813 16.7307 0.516602C16.7808 0.682679 16.8557 0.91245 16.9553 1.16504C17.1594 1.68227 17.4494 2.25141 17.8079 2.5957C18.2483 3.01872 19.0376 3.42042 20.0793 3.67676C20.2282 3.71347 20.3333 3.84664 20.3333 4C20.3333 4.15336 20.2282 4.28653 20.0793 4.32324C19.1029 4.56353 18.3482 4.9317 17.8948 5.3252L17.8079 5.4043C17.4494 5.74903 17.1593 6.31792 16.9553 6.83496C16.8557 7.08748 16.7808 7.31735 16.7307 7.4834C16.7058 7.56608 16.6864 7.63327 16.6741 7.67871C16.668 7.70127 16.6633 7.7191 16.6604 7.73047C16.659 7.73598 16.6591 7.74058 16.6584 7.74316C16.6581 7.74422 16.6567 7.74463 16.6565 7.74512C16.62 7.89428 16.4868 7.99998 16.3333 8C16.1798 7.99999 16.0466 7.89509 16.01 7.74609V7.74512C16.0098 7.74463 16.0084 7.74423 16.0081 7.74316C16.0074 7.74059 16.0075 7.73595 16.0061 7.73047C16.0032 7.7191 15.9985 7.70127 15.9924 7.67871C15.9801 7.63324 15.9608 7.56618 15.9358 7.4834C15.8857 7.31733 15.8108 7.08754 15.7112 6.83496C15.5072 6.31773 15.2171 5.74859 14.8586 5.4043C14.4182 4.98127 13.6289 4.57959 12.5872 4.32324C12.4382 4.28656 12.3333 4.15339 12.3333 4C12.3333 3.84661 12.4382 3.71344 12.5872 3.67676C13.6289 3.42041 14.4182 3.01873 14.8586 2.5957L14.9905 2.45703C15.2888 2.11011 15.5327 1.61745 15.7112 1.16504C15.8108 0.912505 15.8857 0.682654 15.9358 0.516602C15.9607 0.433922 15.9802 0.366726 15.9924 0.321289C15.9985 0.29874 16.0032 0.280896 16.0061 0.269531C16.0075 0.264031 16.0074 0.259415 16.0081 0.256836C16.0084 0.255773 16.0098 0.255373 16.01 0.254883C16.0465 0.105704 16.1797 -6.27592e-07 16.3333 0Z" fill="#111"/>
<path d="M19.6665 7.33325C19.82 7.33327 19.9541 7.4391 19.9907 7.58813C19.9909 7.589 19.9913 7.59029 19.9917 7.59204C19.9928 7.59651 19.995 7.60406 19.9976 7.61353C20.0027 7.63266 20.0102 7.6618 20.021 7.69751C20.0427 7.7694 20.0757 7.86879 20.1187 7.97778C20.2093 8.20765 20.3291 8.43559 20.4624 8.56372C20.631 8.72563 20.9561 8.89766 21.4126 9.01001C21.5615 9.04671 21.6665 9.17987 21.6665 9.33325C21.6665 9.48663 21.5615 9.6198 21.4126 9.65649C21.0131 9.75481 20.7141 9.89843 20.5327 10.0413L20.4624 10.1028C20.3291 10.2312 20.2093 10.459 20.1187 10.6887C20.0756 10.7977 20.0427 10.8971 20.021 10.969C20.0102 11.0047 20.0027 11.0338 19.9976 11.053C19.995 11.0624 19.9928 11.07 19.9917 11.0745C19.9912 11.0763 19.99 11.0775 19.9897 11.0784C19.9532 11.2275 19.8201 11.3332 19.6665 11.3333C19.5322 11.3332 19.413 11.253 19.3608 11.1331L19.3433 11.0793L19.3423 11.0784C19.3422 11.0775 19.3417 11.0762 19.3413 11.0745C19.3402 11.07 19.338 11.0624 19.3354 11.053C19.3303 11.0338 19.3228 11.0047 19.312 10.969C19.2903 10.8971 19.2573 10.7977 19.2144 10.6887C19.1237 10.4589 19.0039 10.2309 18.8706 10.1028C18.702 9.94087 18.3769 9.76884 17.9204 9.65649C17.7715 9.61981 17.6665 9.48665 17.6665 9.33325C17.6665 9.17986 17.7715 9.04669 17.9204 9.01001C18.3769 8.89766 18.702 8.72563 18.8706 8.56372L18.9194 8.51196C19.0331 8.37925 19.135 8.17899 19.2144 7.97778C19.2574 7.86875 19.2903 7.76941 19.312 7.69751C19.3228 7.66181 19.3303 7.63266 19.3354 7.61353C19.338 7.60407 19.3402 7.5965 19.3413 7.59204C19.3418 7.59017 19.343 7.58898 19.3433 7.58813C19.3798 7.43896 19.5129 7.33325 19.6665 7.33325Z" fill="#F45197"/>
</svg>
