<svg width="20" height="20" viewBox="0 0 20 20" fill="none" xmlns="http://www.w3.org/2000/svg">
<path d="M13.4582 10.8749L11.6665 13.7499C11.5137 13.986 11.3019 14.0832 11.0311 14.0415C10.7603 13.9999 10.5901 13.8402 10.5207 13.5624L9.93734 11.229L4.24984 16.9165C4.09706 17.0693 3.90609 17.1492 3.67692 17.1561C3.44775 17.1631 3.24984 17.0832 3.08317 16.9165C2.93039 16.7638 2.854 16.5693 2.854 16.3332C2.854 16.0971 2.93039 15.9027 3.08317 15.7499L8.77067 10.0415L6.43734 9.45822C6.15956 9.38877 5.99984 9.21863 5.95817 8.9478C5.9165 8.67697 6.01373 8.46516 6.24984 8.31238L9.12484 6.54155L8.87484 3.14571C8.84706 2.86794 8.95817 2.66655 9.20817 2.54155C9.45817 2.41655 9.68734 2.44433 9.89567 2.62488L12.4998 4.81238L15.6457 3.54155C15.9096 3.43044 16.1387 3.4721 16.3332 3.66655C16.5276 3.86099 16.5693 4.09016 16.4582 4.35405L15.1873 7.49988L17.3748 10.0832C17.5554 10.2915 17.5832 10.5207 17.4582 10.7707C17.3332 11.0207 17.1318 11.1318 16.854 11.104L13.4582 10.8749Z" fill="black"/>
<path d="M14.125 15.7917C14.0417 15.7083 14 15.6111 14 15.5C14 15.3889 14.0417 15.2917 14.125 15.2083L15.2083 14.125C15.2917 14.0417 15.3889 14 15.5 14C15.6111 14 15.7083 14.0417 15.7917 14.125L16.875 15.2083C16.9583 15.2917 17 15.3889 17 15.5C17 15.6111 16.9583 15.7083 16.875 15.7917L15.7917 16.875C15.7083 16.9583 15.6111 17 15.5 17C15.3889 17 15.2917 16.9583 15.2083 16.875L14.125 15.7917Z" fill="#5185C5"/>
<path d="M2.125 4.79167C2.04167 4.70833 2 4.61111 2 4.5C2 4.38889 2.04167 4.29167 2.125 4.20833L3.20833 3.125C3.29167 3.04167 3.38889 3 3.5 3C3.61111 3 3.70833 3.04167 3.79167 3.125L4.875 4.20833C4.95833 4.29167 5 4.38889 5 4.5C5 4.61111 4.95833 4.70833 4.875 4.79167L3.79167 5.875C3.70833 5.95833 3.61111 6 3.5 6C3.38889 6 3.29167 5.95833 3.20833 5.875L2.125 4.79167Z" fill="#5185C5"/>
</svg>
