<svg width="20" height="20" viewBox="0 0 20 20" fill="none" xmlns="http://www.w3.org/2000/svg">
<path d="M13.75 15.8333C14.3333 15.8333 14.8264 15.632 15.2292 15.2292C15.6319 14.8264 15.8333 14.3333 15.8333 13.75C15.8333 13.1667 15.6319 12.6736 15.2292 12.2708C14.8264 11.8681 14.3333 11.6667 13.75 11.6667C13.1667 11.6667 12.6736 11.8681 12.2708 12.2708C11.8681 12.6736 11.6667 13.1667 11.6667 13.75C11.6667 14.3333 11.8681 14.8264 12.2708 15.2292C12.6736 15.632 13.1667 15.8333 13.75 15.8333ZM18 19.1667L15.75 16.9375C15.4583 17.1181 15.1424 17.257 14.8021 17.3542C14.4618 17.4514 14.1111 17.5 13.75 17.5C12.7083 17.5 11.8229 17.1354 11.0937 16.4063C10.3646 15.6771 10 14.7917 10 13.75C10 12.7083 10.3646 11.8229 11.0937 11.0938C11.8229 10.3646 12.7083 10 13.75 10C14.7917 10 15.6771 10.3646 16.4062 11.0938C17.1354 11.8229 17.5 12.7083 17.5 13.75C17.5 14.125 17.4479 14.4826 17.3437 14.8229C17.2396 15.1632 17.0972 15.4792 16.9167 15.7708L19.1667 18L18 19.1667ZM4.16667 18.3333C3.70833 18.3333 3.31597 18.1701 2.98958 17.8438C2.66319 17.5174 2.5 17.125 2.5 16.6667V3.33334C2.5 2.87501 2.66319 2.48264 2.98958 2.15626C3.31597 1.82987 3.70833 1.66667 4.16667 1.66667H10.8333L15.8333 6.66667V8.75001C15.5 8.61112 15.1597 8.50695 14.8125 8.43751C14.4653 8.36806 14.1111 8.33334 13.75 8.33334C12.0417 8.33334 10.7049 8.89931 9.73958 10.0313C8.77431 11.1632 8.29167 12.4236 8.29167 13.8125C8.29167 14.6736 8.49653 15.507 8.90625 16.3125C9.31597 17.1181 9.96528 17.7917 10.8542 18.3333H4.16667ZM10 7.50001H14.1667L10 3.33334V7.50001Z" fill="black"/>
</svg>
