<svg width="20" height="20" viewBox="0 0 20 20" fill="none" xmlns="http://www.w3.org/2000/svg">
<path d="M9.1665 14.1666H5.83317C4.68039 14.1666 3.69775 13.7603 2.88525 12.9478C2.07275 12.1353 1.6665 11.1527 1.6665 9.99992C1.6665 8.84714 2.07275 7.8645 2.88525 7.052C3.69775 6.2395 4.68039 5.83325 5.83317 5.83325H9.1665V7.49992H5.83317C5.13873 7.49992 4.54845 7.74297 4.06234 8.22909C3.57623 8.7152 3.33317 9.30547 3.33317 9.99992C3.33317 10.6944 3.57623 11.2846 4.06234 11.7708C4.54845 12.2569 5.13873 12.4999 5.83317 12.4999H9.1665V14.1666ZM6.6665 10.8333V9.16658H13.3332V10.8333H6.6665ZM10.8332 14.1666V12.4999H14.1665C14.8609 12.4999 15.4512 12.2569 15.9373 11.7708C16.4234 11.2846 16.6665 10.6944 16.6665 9.99992C16.6665 9.30547 16.4234 8.7152 15.9373 8.22909C15.4512 7.74297 14.8609 7.49992 14.1665 7.49992H10.8332V5.83325H14.1665C15.3193 5.83325 16.3019 6.2395 17.1144 7.052C17.9269 7.8645 18.3332 8.84714 18.3332 9.99992C18.3332 11.1527 17.9269 12.1353 17.1144 12.9478C16.3019 13.7603 15.3193 14.1666 14.1665 14.1666H10.8332Z" fill="#333333"/>
</svg>
