<svg width="18" height="20" viewBox="0 0 18 20" fill="none" xmlns="http://www.w3.org/2000/svg">
<path d="M17.2463 5.44212H14.461C13.3432 5.44212 12.4351 4.53621 12.4351 3.41621V0.630859L17.2463 5.44212Z" fill="black"/>
<path d="M15.5742 20H4.43282C3.1055 20 2.02832 18.9206 2.02832 17.5955V16.5837H2.78776V17.5955C2.78776 18.5037 3.52691 19.2406 4.43282 19.2406H15.5742C16.4824 19.2406 17.2193 18.5014 17.2193 17.5955V5.59999L12.3787 0.759436H4.43282C3.52465 0.759436 2.78776 1.4986 2.78776 2.40452V10.5082H2.02832V2.40452C2.02832 1.07719 3.10775 0 4.43282 0H12.5342C12.6356 0 12.7325 0.0405612 12.8024 0.11042L17.8661 5.17408C17.9382 5.24619 17.9765 5.34085 17.9765 5.44226V17.5955C17.9765 18.9228 16.8971 20 15.572 20H15.5742Z" fill="black"/>
<path d="M0.380859 16.5094C0.380859 17.1381 0.892408 17.6497 1.52114 17.6497H13.6744C14.3031 17.6497 14.8146 17.1381 14.8146 16.5094V11.4457C14.8146 10.817 14.3031 10.3054 13.6744 10.3054H1.0141C0.786493 10.3054 0.572409 10.2513 0.380859 10.1522V16.5071V16.5094Z" fill="#16A854"/>
<path d="M13.6721 17.2689C14.0913 17.2689 14.4315 16.9286 14.4315 16.5094V11.4458C14.4315 11.0266 14.0913 10.6863 13.6721 10.6863H1.01183C0.926195 10.6863 0.840562 10.6796 0.759436 10.6683V16.5094C0.759436 16.9286 1.09972 17.2689 1.51887 17.2689H13.6721ZM13.6721 18.0283H1.51887C0.680561 18.0283 0 17.3477 0 16.5094V8.91281C0 9.47168 0.452956 9.92464 1.01183 9.92464H13.6721C14.5104 9.92464 15.191 10.6052 15.191 11.4435V16.5072C15.191 17.3455 14.5104 18.0261 13.6721 18.0261V18.0283Z" fill="#16A854"/>
<path d="M1.01183 7.89187C0.452956 7.89187 0 8.34483 0 8.9037C0 9.46257 0.452956 9.91553 1.01183 9.91553H2.02366V7.88961H1.01183V7.89187Z" fill="#10843F"/>
<path d="M10.8009 12.4558L11.4307 13.5095H11.4545L12.0923 12.4558H12.6785L11.7952 13.8898L12.6944 15.3238H12.0962L11.4545 14.278H11.4307L10.789 15.3238H10.1948L11.102 13.8898L10.2067 12.4558H10.8009Z" fill="white"/>
<path d="M9.4069 13.2442C9.38313 12.9986 9.17318 12.856 8.8642 12.856C8.53938 12.856 8.34132 13.0144 8.34132 13.2283C8.34132 13.47 8.59484 13.569 8.83251 13.6244L9.10188 13.6957C9.5297 13.7948 9.94167 14.0206 9.94167 14.5197C9.94167 15.0228 9.54554 15.3674 8.85628 15.3674C8.18683 15.3674 7.76693 15.0465 7.74316 14.4801H8.25021C8.27397 14.7811 8.5275 14.9277 8.85232 14.9277C9.19299 14.9277 9.4267 14.7613 9.4267 14.5157C9.4267 14.2899 9.21676 14.1949 8.90778 14.1156L8.58295 14.0325C8.11156 13.9097 7.81843 13.672 7.81843 13.26C7.81843 12.753 8.27001 12.4163 8.87213 12.4163C9.48216 12.4163 9.89413 12.7609 9.90205 13.2442H9.4069Z" fill="white"/>
<path d="M5.65137 15.3238V12.4558H6.16633V14.888H7.43394V15.3238H5.65137Z" fill="white"/>
<path d="M3.40148 12.4558L4.03133 13.5095H4.05509L4.69286 12.4558H5.27912L4.39576 13.8898L5.29497 15.3238H4.69682L4.05509 14.278H4.03133L3.3896 15.3238H2.79541L3.70254 13.8898L2.80729 12.4558H3.40148Z" fill="white"/>
</svg>
