<svg width="19" height="20" viewBox="0 0 19 20" fill="none" xmlns="http://www.w3.org/2000/svg">
<path d="M17.4714 5.44212H14.6861C13.5683 5.44212 12.6602 4.53621 12.6602 3.41621V0.630859L17.4714 5.44212Z" fill="black"/>
<path d="M15.7993 20H4.65792C3.3306 20 2.25342 18.9206 2.25342 17.5955V16.5837H3.01285V17.5955C3.01285 18.5037 3.75201 19.2406 4.65792 19.2406H15.7993C16.7075 19.2406 17.4444 18.5014 17.4444 17.5955V5.59999L12.6038 0.759436H4.65792C3.74975 0.759436 3.01285 1.4986 3.01285 2.40452V10.5082H2.25342V2.40452C2.25342 1.07719 3.33285 0 4.65792 0H12.7593C12.8607 0 12.9576 0.0405612 13.0275 0.11042L18.0912 5.17408C18.1633 5.24619 18.2016 5.34085 18.2016 5.44226V17.5955C18.2016 18.9228 17.1222 20 15.7971 20H15.7993Z" fill="black"/>
<path d="M1.12676 7.88996C0.504404 7.88996 0 8.3938 0 9.01547C0 9.63713 0.504404 10.141 1.12676 10.141H2.25352V7.88745H1.12676V7.88996Z" fill="#3FAFE0"/>
<path d="M1.5187 17.7196C0.889967 17.7196 0.378418 17.208 0.378418 16.5793V10.2244C0.567714 10.3213 0.784051 10.3776 1.01166 10.3776H13.6719C14.3007 10.3776 14.8122 10.8892 14.8122 11.5179V16.5815C14.8122 17.2103 14.3007 17.7218 13.6719 17.7218H1.5187V17.7196Z" fill="#4DC0FF"/>
<path d="M0.759436 10.7404C0.842816 10.7516 0.926202 10.7584 1.01184 10.7584H13.6721C14.0913 10.7584 14.4316 11.0987 14.4316 11.5178V16.5815C14.4316 17.0006 14.0913 17.3409 13.6721 17.3409H1.51888C1.09972 17.3409 0.759436 17.0006 0.759436 16.5815V10.7404ZM0 8.98486V16.5815C0 17.4198 0.680568 18.1003 1.51888 18.1003H13.6721C14.5104 18.1003 15.191 17.4198 15.191 16.5815V11.5178C15.191 10.6795 14.5104 9.99895 13.6721 9.99895H1.01184C0.452962 9.99895 0 9.54599 0 8.98712V8.98486Z" fill="#4DC0FF"/>
<path d="M10.2573 15.324V12.4561H11.3348C11.9924 12.4561 12.3449 12.8561 12.3449 13.4068C12.3449 13.9574 11.9884 14.3535 11.3269 14.3535H10.7723V15.324H10.2573ZM10.7723 13.9296H11.2556C11.6438 13.9296 11.8181 13.7118 11.8181 13.4068C11.8181 13.0978 11.6438 12.8878 11.2556 12.8878H10.7723V13.9296Z" fill="white"/>
<path d="M6.92626 15.324L6.11816 12.4561H6.67274L7.19167 14.5674H7.2194L7.77001 12.4561H8.27706L8.83163 14.5714H8.8554L9.37433 12.4561H9.9289L9.12081 15.324H8.6098L8.03542 13.3077H8.01561L7.43727 15.324H6.92626Z" fill="white"/>
<path d="M3.42041 15.324V12.4561H3.93537V13.6722H5.27032V12.4561H5.78925V15.324H5.27032V14.1039H3.93537V15.324H3.42041Z" fill="white"/>
</svg>
