<svg width="19" height="20" viewBox="0 0 19 20" fill="none" xmlns="http://www.w3.org/2000/svg">
<path d="M17.573 5.44212H14.7876C13.6699 5.44212 12.7617 4.53621 12.7617 3.41621V0.630859L17.573 5.44212Z" fill="black"/>
<path d="M15.7993 20H4.65792C3.3306 20 2.25342 18.9206 2.25342 17.5955V16.5837H3.01285V17.5955C3.01285 18.5037 3.75201 19.2406 4.65792 19.2406H15.7993C16.7075 19.2406 17.4444 18.5014 17.4444 17.5955V5.59999L12.6038 0.759436H4.65792C3.74975 0.759436 3.01285 1.4986 3.01285 2.40452V10.5082H2.25342V2.40452C2.25342 1.07719 3.33285 0 4.65792 0H12.7593C12.8607 0 12.9576 0.0405612 13.0275 0.11042L18.0912 5.17408C18.1633 5.24619 18.2016 5.34085 18.2016 5.44226V17.5955C18.2016 18.9228 17.1222 20 15.7971 20H15.7993Z" fill="black"/>
<path d="M1.12676 7.88996C0.504404 7.88996 0 8.3938 0 9.01547C0 9.63713 0.504404 10.141 1.12676 10.141H2.25352V7.88745H1.12676V7.88996Z" fill="#0A9499"/>
<path d="M1.5187 17.6363C0.889967 17.6363 0.378418 17.1248 0.378418 16.496V10.1411C0.567714 10.238 0.784051 10.2943 1.01166 10.2943H13.6719C14.3007 10.2943 14.8122 10.8059 14.8122 11.4346V16.4983C14.8122 17.127 14.3007 17.6386 13.6719 17.6386H1.5187V17.6363Z" fill="#10ADB2"/>
<path d="M0.759436 10.6571C0.842816 10.6684 0.926202 10.6751 1.01184 10.6751H13.6721C14.0913 10.6751 14.4316 11.0154 14.4316 11.4346V16.4982C14.4316 16.9174 14.0913 17.2577 13.6721 17.2577H1.51888C1.09972 17.2577 0.759436 16.9174 0.759436 16.4982V10.6571ZM0 8.90161V16.4982C0 17.3365 0.680568 18.0171 1.51888 18.0171H13.6721C14.5104 18.0171 15.191 17.3365 15.191 16.4982V11.4346C15.191 10.5963 14.5104 9.9157 13.6721 9.9157H1.01184C0.452962 9.9157 0 9.46274 0 8.90387V8.90161Z" fill="#10ADB2"/>
<path d="M11.6154 12.4561L12.2452 13.5098H12.269L12.9067 12.4561H13.493L12.6096 13.89L13.5088 15.324H12.9107L12.269 14.2782H12.2452L11.6035 15.324H11.0093L11.9164 13.89L11.0212 12.4561H11.6154Z" fill="white"/>
<path d="M8.68018 15.324V12.4561H9.75764C10.4152 12.4561 10.7678 12.8561 10.7678 13.4068C10.7678 13.9574 10.4112 14.3535 9.74972 14.3535H9.19514V15.324H8.68018ZM9.19514 13.9296H9.67842C10.0666 13.9296 10.2409 13.7118 10.2409 13.4068C10.2409 13.0978 10.0666 12.8878 9.67842 12.8878H9.19514V13.9296Z" fill="white"/>
<path d="M5.34863 15.324L4.54053 12.4561H5.0951L5.61403 14.5674H5.64176L6.19238 12.4561H6.69942L7.254 14.5714H7.27776L7.79669 12.4561H8.35127L7.54317 15.324H7.03216L6.45778 13.3077H6.43797L5.85963 15.324H5.34863Z" fill="white"/>
<path d="M1.84277 15.324V12.4561H2.35774V13.6722H3.69269V12.4561H4.21161V15.324H3.69269V14.1039H2.35774V15.324H1.84277Z" fill="white"/>
</svg>
