<svg width="18" height="20" xmlns="http://www.w3.org/2000/svg" fill="none">

 <g>
  <title>Layer 1</title>
  <path id="svg_1" fill="black" d="m17.2463,5.44212l-2.7853,0c-1.1178,0 -2.0259,-0.90591 -2.0259,-2.02591l0,-2.78535l4.8112,4.81126z"/>
  <path id="svg_2" fill="black" d="m15.5742,20l-11.14138,0c-1.32732,0 -2.4045,-1.0794 -2.4045,-2.4045l0,-1.0118l0.75944,0l0,1.0118c0,0.9082 0.73915,1.6451 1.64506,1.6451l11.14138,0c0.9082,0 1.6451,-0.7392 1.6451,-1.6451l0,-11.99551l-4.8406,-4.84055l-7.94588,0c-0.90817,0 -1.64506,0.73916 -1.64506,1.64508l0,8.10368l-0.75944,0l0,-8.10368c0,-1.32733 1.07943,-2.40452 2.4045,-2.40452l8.10138,0c0.1014,0 0.1983,0.04056 0.2682,0.11042l5.0637,5.06366c0.0721,0.07211 0.1104,0.16677 0.1104,0.26818l0,12.15324c0,1.3273 -1.0794,2.4045 -2.4045,2.4045l0.0022,0z"/>
  <path id="svg_3" fill="#0000ff" d="m0.38086,16.588c0,0.6287 0.51155,1.1403 1.14028,1.1403l12.15326,0c0.6287,0 1.1402,-0.5116 1.1402,-1.1403l0,-5.0637c0,-0.6287 -0.5115,-1.1403 -1.1402,-1.1403l-12.6603,0c-0.22761,0 -0.44169,-0.054 -0.63324,-0.1532l0,6.3549l0,0.0023z"/>
  <path id="svg_4" fill="#0000bf" d="m13.6721,17.3475c0.4192,0 0.7594,-0.3403 0.7594,-0.7594l0,-5.0637c0,-0.4191 -0.3402,-0.7594 -0.7594,-0.7594l-12.66027,0c-0.08563,0 -0.17127,-0.0068 -0.25239,-0.0181l0,5.8412c0,0.4191 0.34028,0.7594 0.75943,0.7594l12.15323,0zm0,0.7594l-12.15323,0c-0.83831,0 -1.51887,-0.6805 -1.51887,-1.5188l0,-7.59665c0,0.55887 0.45296,1.01185 1.01183,1.01185l12.66027,0c0.8383,0 1.5189,0.6805 1.5189,1.5189l0,5.0636c0,0.8383 -0.6806,1.5189 -1.5189,1.5189l0,0.0022z"/>
  <path id="svg_5" fill="#0000bf" d="m1.01183,7.97732c-0.55887,0 -1.01183,0.45295 -1.01183,1.01183c0,0.55887 0.45296,1.01185 1.01183,1.01185l1.01183,0l0,-2.02594l-1.01183,0l0,0.00226z"/>
  <text xml:space="preserve" text-anchor="start" font-family="Noto Sans JP" font-size="24" stroke-width="0" id="svg_10" y="7.91666" x="-62.80522" fill="#000000">ㅔㅅ</text>
  <text font-weight="bold" xml:space="preserve" text-anchor="start" font-family="Noto Sans JP" font-size="5" stroke-width="0" id="svg_11" y="16" x="2" stroke="null" fill="#ffffff">docs</text>
 </g>
</svg>