<svg width="18" height="20" viewBox="0 0 18 20" fill="none" xmlns="http://www.w3.org/2000/svg">
<path d="M17.2463 5.44212H14.461C13.3432 5.44212 12.4351 4.53621 12.4351 3.41621V0.630859L17.2463 5.44212Z" fill="black"/>
<path d="M15.5742 20H4.43282C3.1055 20 2.02832 18.9206 2.02832 17.5955V16.5837H2.78776V17.5955C2.78776 18.5037 3.52691 19.2406 4.43282 19.2406H15.5742C16.4824 19.2406 17.2193 18.5014 17.2193 17.5955V5.59999L12.3787 0.759436H4.43282C3.52465 0.759436 2.78776 1.4986 2.78776 2.40452V10.5082H2.02832V2.40452C2.02832 1.07719 3.10775 0 4.43282 0H12.5342C12.6356 0 12.7325 0.0405612 12.8024 0.11042L17.8661 5.17408C17.9382 5.24619 17.9765 5.34085 17.9765 5.44226V17.5955C17.9765 18.9228 16.8971 20 15.572 20H15.5742Z" fill="black"/>
<path d="M0.380859 16.588C0.380859 17.2167 0.892408 17.7283 1.52114 17.7283H13.6744C14.3031 17.7283 14.8146 17.2167 14.8146 16.588V11.5243C14.8146 10.8956 14.3031 10.384 13.6744 10.384H1.0141C0.786493 10.384 0.572409 10.33 0.380859 10.2308V16.5857V16.588Z" fill="#FF0B17"/>
<path d="M13.6721 17.3475C14.0913 17.3475 14.4315 17.0072 14.4315 16.5881V11.5244C14.4315 11.1053 14.0913 10.765 13.6721 10.765H1.01183C0.926195 10.765 0.840562 10.7582 0.759436 10.7469V16.5881C0.759436 17.0072 1.09972 17.3475 1.51887 17.3475H13.6721ZM13.6721 18.1069H1.51887C0.680561 18.1069 0 17.4264 0 16.5881V8.99145C0 9.55032 0.452956 10.0033 1.01183 10.0033H13.6721C14.5104 10.0033 15.191 10.6838 15.191 11.5222V16.5858C15.191 17.4241 14.5104 18.1047 13.6721 18.1047V18.1069Z" fill="#FF0B17"/>
<path d="M1.01183 7.97732C0.452956 7.97732 0 8.43027 0 8.98915C0 9.54802 0.452956 10.001 1.01183 10.001H2.02366V7.97506H1.01183V7.97732Z" fill="#C91B2C"/>
<path d="M9.64551 15.324V12.4561H11.4835V12.8878H10.1605V13.6722H11.3568V14.1039H10.1605V15.324H9.64551Z" fill="white"/>
<path d="M7.79967 15.324H6.8252V12.4561H7.81551C8.67115 12.4561 9.19007 12.9948 9.19007 13.8861C9.19007 14.7813 8.67115 15.324 7.79967 15.324ZM7.34016 14.8764H7.77194C8.37009 14.8764 8.67511 14.5476 8.67511 13.8861C8.67511 13.2285 8.37009 12.9037 7.78778 12.9037H7.34016V14.8764Z" fill="white"/>
<path d="M4.32178 15.324V12.4561H5.39924C6.05681 12.4561 6.40937 12.8561 6.40937 13.4068C6.40937 13.9574 6.05285 14.3535 5.39132 14.3535H4.83674V15.324H4.32178ZM4.83674 13.9296H5.32002C5.70822 13.9296 5.88252 13.7118 5.88252 13.4068C5.88252 13.0978 5.70822 12.8878 5.32002 12.8878H4.83674V13.9296Z" fill="white"/>
</svg>
