<svg width="4" height="14" viewBox="0 0 4 14" fill="none" xmlns="http://www.w3.org/2000/svg">
<path d="M1.75781 13.125C2.72862 13.125 3.51562 12.338 3.51562 11.3672C3.51562 10.3964 2.72862 9.60938 1.75781 9.60938C0.786999 9.60938 0 10.3964 0 11.3672C0 12.338 0.786999 13.125 1.75781 13.125Z" fill="#666666"/>
<path d="M1.75781 8.32031C2.72862 8.32031 3.51562 7.53331 3.51562 6.5625C3.51562 5.59169 2.72862 4.80469 1.75781 4.80469C0.786999 4.80469 0 5.59169 0 6.5625C0 7.53331 0.786999 8.32031 1.75781 8.32031Z" fill="#666666"/>
<path d="M1.75781 3.51563C2.72862 3.51563 3.51562 2.72863 3.51562 1.75781C3.51562 0.787 2.72862 0 1.75781 0C0.786999 0 0 0.787 0 1.75781C0 2.72863 0.786999 3.51563 1.75781 3.51563Z" fill="#666666"/>
</svg>
