<svg width="57" height="57" viewBox="0 0 57 57" fill="none" xmlns="http://www.w3.org/2000/svg">
<path d="M33.7207 5.64178C33.7207 8.75448 31.1916 11.2836 28.0789 11.2836C24.9662 11.2836 22.4371 8.75448 22.4371 5.64178C22.4371 2.52907 24.9662 0 28.0789 0C31.1916 0 33.7207 2.52907 33.7207 5.64178Z" fill="#666666"/>
<path d="M33.7207 50.5004C33.7207 53.6132 31.1916 56.1422 28.0789 56.1422C24.9662 56.1422 22.4371 53.6132 22.4371 50.5004C22.4371 47.3877 24.9662 44.8586 28.0789 44.8586C31.1916 44.8586 33.7207 47.3877 33.7207 50.5004Z" fill="#DDDDDD"/>
<path d="M5.64185 22.4211C8.75456 22.4211 11.2836 24.9502 11.2836 28.0629C11.2836 31.1757 8.75456 33.7047 5.64185 33.7047C2.52914 33.7047 0 31.1757 0 28.0629C0 24.9502 2.52914 22.4211 5.64185 22.4211Z" fill="#CCCCCC"/>
<path d="M50.517 22.4211C53.6297 22.4211 56.1587 24.9502 56.1587 28.0629C56.1587 31.1757 53.6297 33.7047 50.517 33.7047C47.4043 33.7047 44.8751 31.1757 44.8751 28.0629C44.8751 24.9502 47.4043 22.4211 50.517 22.4211Z" fill="#DDDDDD"/>
<path d="M8.21918 39.9464C10.424 37.7415 14.0069 37.7415 16.2117 39.9464C18.4165 42.1512 18.4165 45.734 16.2117 47.9389C14.0069 50.1437 10.424 50.1437 8.21918 47.9389C6.01434 45.734 6.01434 42.1512 8.21918 39.9464Z" fill="#CCCCCC"/>
<path d="M39.9466 8.21954C42.1514 6.01471 45.7343 6.01471 47.9391 8.21954C50.1439 10.4244 50.1439 14.0072 47.9391 16.2121C45.7343 18.4169 42.1514 18.4169 39.9466 16.2121C37.7418 14.0072 37.7418 10.4244 39.9466 8.21954Z" fill="#EEEEEE"/>
<path d="M39.9466 47.9228C37.7418 45.718 37.7418 42.1351 39.9466 39.9302C42.1514 37.7254 45.7343 37.7254 47.9391 39.9302C50.1439 42.1351 50.1439 45.718 47.9391 47.9228C45.7343 50.1276 42.1514 50.1276 39.9466 47.9228Z" fill="#DDDDDD"/>
<path d="M8.21918 16.2121C6.01434 14.0072 6.01434 10.4244 8.21918 8.21954C10.424 6.01471 14.0069 6.01471 16.2117 8.21954C18.4165 10.4244 18.4165 14.0072 16.2117 16.2121C14.0069 18.4169 10.424 18.4169 8.21918 16.2121Z" fill="#999999"/>
</svg>
