<svg width="17" height="15" viewBox="0 0 17 15" fill="none" xmlns="http://www.w3.org/2000/svg">
<path d="M0 15L8.5 0L17 15H0ZM9.05057 12.4046C9.19867 12.2533 9.27273 12.0658 9.27273 11.8421C9.27273 11.6184 9.19867 11.4309 9.05057 11.2796C8.90246 11.1283 8.71894 11.0526 8.5 11.0526C8.28106 11.0526 8.09754 11.1283 7.94943 11.2796C7.80133 11.4309 7.72727 11.6184 7.72727 11.8421C7.72727 12.0658 7.80133 12.2533 7.94943 12.4046C8.09754 12.5559 8.28106 12.6316 8.5 12.6316C8.71894 12.6316 8.90246 12.5559 9.05057 12.4046ZM7.72727 10.2632H9.27273V6.31579H7.72727V10.2632Z" fill="#FF0000"/>
</svg>
