<svg width="20" height="20" viewBox="0 0 20 20" fill="none" xmlns="http://www.w3.org/2000/svg">
<path d="M10.0003 18.3332C8.86144 18.3332 7.78505 18.1144 6.77116 17.6769C5.75727 17.2394 4.87185 16.6422 4.11491 15.8853C3.35796 15.1283 2.76074 14.2429 2.32324 13.229C1.88574 12.2151 1.66699 11.1387 1.66699 9.99984C1.66699 8.84706 1.88574 7.7672 2.32324 6.76025C2.76074 5.75331 3.35796 4.87136 4.11491 4.11442C4.87185 3.35748 5.75727 2.76025 6.77116 2.32275C7.78505 1.88525 8.86144 1.6665 10.0003 1.6665C11.1531 1.6665 12.233 1.88525 13.2399 2.32275C14.2469 2.76025 15.1288 3.35748 15.8857 4.11442C16.6427 4.87136 17.2399 5.75331 17.6774 6.76025C18.1149 7.7672 18.3337 8.84706 18.3337 9.99984C18.3337 11.1387 18.1149 12.2151 17.6774 13.229C17.2399 14.2429 16.6427 15.1283 15.8857 15.8853C15.1288 16.6422 14.2469 17.2394 13.2399 17.6769C12.233 18.1144 11.1531 18.3332 10.0003 18.3332ZM10.0003 16.6248C10.3614 16.1248 10.6739 15.604 10.9378 15.0623C11.2017 14.5207 11.417 13.9443 11.5837 13.3332H8.41699C8.58366 13.9443 8.79894 14.5207 9.06283 15.0623C9.32671 15.604 9.63921 16.1248 10.0003 16.6248ZM7.83366 16.2915C7.58366 15.8332 7.36491 15.3575 7.17741 14.8644C6.98991 14.3714 6.83366 13.8609 6.70866 13.3332H4.25033C4.6531 14.0276 5.15658 14.6318 5.76074 15.1457C6.36491 15.6596 7.05588 16.0415 7.83366 16.2915ZM12.167 16.2915C12.9448 16.0415 13.6357 15.6596 14.2399 15.1457C14.8441 14.6318 15.3475 14.0276 15.7503 13.3332H13.292C13.167 13.8609 13.0107 14.3714 12.8232 14.8644C12.6357 15.3575 12.417 15.8332 12.167 16.2915ZM3.54199 11.6665H6.37533C6.33366 11.3887 6.30241 11.1144 6.28158 10.8436C6.26074 10.5728 6.25033 10.2915 6.25033 9.99984C6.25033 9.70817 6.26074 9.42692 6.28158 9.15609C6.30241 8.88525 6.33366 8.61095 6.37533 8.33317H3.54199C3.47255 8.61095 3.42046 8.88525 3.38574 9.15609C3.35102 9.42692 3.33366 9.70817 3.33366 9.99984C3.33366 10.2915 3.35102 10.5728 3.38574 10.8436C3.42046 11.1144 3.47255 11.3887 3.54199 11.6665ZM8.04199 11.6665H11.9587C12.0003 11.3887 12.0316 11.1144 12.0524 10.8436C12.0732 10.5728 12.0837 10.2915 12.0837 9.99984C12.0837 9.70817 12.0732 9.42692 12.0524 9.15609C12.0316 8.88525 12.0003 8.61095 11.9587 8.33317H8.04199C8.00033 8.61095 7.96908 8.88525 7.94824 9.15609C7.92741 9.42692 7.91699 9.70817 7.91699 9.99984C7.91699 10.2915 7.92741 10.5728 7.94824 10.8436C7.96908 11.1144 8.00033 11.3887 8.04199 11.6665ZM13.6253 11.6665H16.4587C16.5281 11.3887 16.5802 11.1144 16.6149 10.8436C16.6496 10.5728 16.667 10.2915 16.667 9.99984C16.667 9.70817 16.6496 9.42692 16.6149 9.15609C16.5802 8.88525 16.5281 8.61095 16.4587 8.33317H13.6253C13.667 8.61095 13.6982 8.88525 13.7191 9.15609C13.7399 9.42692 13.7503 9.70817 13.7503 9.99984C13.7503 10.2915 13.7399 10.5728 13.7191 10.8436C13.6982 11.1144 13.667 11.3887 13.6253 11.6665ZM13.292 6.6665H15.7503C15.3475 5.97206 14.8441 5.36789 14.2399 4.854C13.6357 4.34011 12.9448 3.95817 12.167 3.70817C12.417 4.1665 12.6357 4.6422 12.8232 5.13525C13.0107 5.62831 13.167 6.13873 13.292 6.6665ZM8.41699 6.6665H11.5837C11.417 6.05539 11.2017 5.479 10.9378 4.93734C10.6739 4.39567 10.3614 3.87484 10.0003 3.37484C9.63921 3.87484 9.32671 4.39567 9.06283 4.93734C8.79894 5.479 8.58366 6.05539 8.41699 6.6665ZM4.25033 6.6665H6.70866C6.83366 6.13873 6.98991 5.62831 7.17741 5.13525C7.36491 4.6422 7.58366 4.1665 7.83366 3.70817C7.05588 3.95817 6.36491 4.34011 5.76074 4.854C5.15658 5.36789 4.6531 5.97206 4.25033 6.6665Z" fill="#666666"/>
</svg>
