<svg width="21" height="20" viewBox="0 0 21 20" fill="none" xmlns="http://www.w3.org/2000/svg">
<path d="M2.67857 20.0002C4.1579 20.0002 5.35714 18.801 5.35714 17.3216C5.35714 15.8423 4.1579 14.6431 2.67857 14.6431C1.19924 14.6431 0 15.8423 0 17.3216C0 18.801 1.19924 20.0002 2.67857 20.0002Z" fill="black"/>
<path d="M2.67857 12.6784C4.1579 12.6784 5.35714 11.4792 5.35714 9.99986C5.35714 8.52053 4.1579 7.32129 2.67857 7.32129C1.19924 7.32129 0 8.52053 0 9.99986C0 11.4792 1.19924 12.6784 2.67857 12.6784Z" fill="black"/>
<path d="M2.67857 5.35714C4.1579 5.35714 5.35714 4.15791 5.35714 2.67857C5.35714 1.19924 4.1579 0 2.67857 0C1.19924 0 0 1.19924 0 2.67857C0 4.15791 1.19924 5.35714 2.67857 5.35714Z" fill="#F45197"/>
<path d="M10.1786 20.0002C11.6579 20.0002 12.8571 18.801 12.8571 17.3216C12.8571 15.8423 11.6579 14.6431 10.1786 14.6431C8.69924 14.6431 7.5 15.8423 7.5 17.3216C7.5 18.801 8.69924 20.0002 10.1786 20.0002Z" fill="black"/>
<path d="M10.1786 12.6784C11.6579 12.6784 12.8571 11.4792 12.8571 9.99986C12.8571 8.52053 11.6579 7.32129 10.1786 7.32129C8.69924 7.32129 7.5 8.52053 7.5 9.99986C7.5 11.4792 8.69924 12.6784 10.1786 12.6784Z" fill="black"/>
<path d="M10.1786 5.35714C11.6579 5.35714 12.8571 4.15791 12.8571 2.67857C12.8571 1.19924 11.6579 0 10.1786 0C8.69924 0 7.5 1.19924 7.5 2.67857C7.5 4.15791 8.69924 5.35714 10.1786 5.35714Z" fill="black"/>
<path d="M17.6786 20.0002C19.1579 20.0002 20.3571 18.801 20.3571 17.3216C20.3571 15.8423 19.1579 14.6431 17.6786 14.6431C16.1992 14.6431 15 15.8423 15 17.3216C15 18.801 16.1992 20.0002 17.6786 20.0002Z" fill="black"/>
<path d="M17.6786 12.6784C19.1579 12.6784 20.3571 11.4792 20.3571 9.99986C20.3571 8.52053 19.1579 7.32129 17.6786 7.32129C16.1992 7.32129 15 8.52053 15 9.99986C15 11.4792 16.1992 12.6784 17.6786 12.6784Z" fill="black"/>
<path d="M17.6786 5.35714C19.1579 5.35714 20.3571 4.15791 20.3571 2.67857C20.3571 1.19924 19.1579 0 17.6786 0C16.1992 0 15 1.19924 15 2.67857C15 4.15791 16.1992 5.35714 17.6786 5.35714Z" fill="black"/>
</svg>
