<svg width="17" height="17" viewBox="0 0 17 17" fill="none" xmlns="http://www.w3.org/2000/svg">
<path d="M0.708313 14.1667V12.1833C0.708313 11.7819 0.811612 11.413 1.01821 11.0766C1.22481 10.7401 1.49929 10.4833 1.84165 10.3063C2.57359 9.94028 3.31734 9.6658 4.0729 9.48281C4.82845 9.29983 5.59581 9.20834 6.37498 9.20834C7.15415 9.20834 7.92151 9.29983 8.67706 9.48281C9.43262 9.6658 10.1764 9.94028 10.9083 10.3063C11.2507 10.4833 11.5252 10.7401 11.7318 11.0766C11.9383 11.413 12.0416 11.7819 12.0416 12.1833V14.1667H0.708313ZM13.4583 14.1667V12.0417C13.4583 11.5222 13.3137 11.0234 13.0245 10.5453C12.7352 10.0672 12.325 9.65695 11.7937 9.31459C12.3958 9.38542 12.9625 9.50643 13.4937 9.67761C14.025 9.84879 14.5208 10.0583 14.9812 10.3063C15.4062 10.5424 15.7309 10.805 15.9552 11.0943C16.1795 11.3835 16.2916 11.6993 16.2916 12.0417V14.1667H13.4583ZM4.37394 7.66771C3.81908 7.11285 3.54165 6.44584 3.54165 5.66667C3.54165 4.8875 3.81908 4.22049 4.37394 3.66563C4.9288 3.11077 5.59581 2.83334 6.37498 2.83334C7.15415 2.83334 7.82116 3.11077 8.37602 3.66563C8.93088 4.22049 9.20831 4.8875 9.20831 5.66667C9.20831 6.44584 8.93088 7.11285 8.37602 7.66771C7.82116 8.22257 7.15415 8.5 6.37498 8.5C5.59581 8.5 4.9288 8.22257 4.37394 7.66771ZM12.626 7.66771C12.0712 8.22257 11.4041 8.5 10.625 8.5C10.4951 8.5 10.3298 8.48525 10.1291 8.45573C9.92845 8.42622 9.76317 8.39375 9.63331 8.35834C9.95206 7.98056 10.197 7.56146 10.3682 7.10104C10.5394 6.64063 10.625 6.1625 10.625 5.66667C10.625 5.17084 10.5394 4.69271 10.3682 4.23229C10.197 3.77188 9.95206 3.35278 9.63331 2.975C9.79859 2.91597 9.96387 2.87761 10.1291 2.8599C10.2944 2.84219 10.4597 2.83334 10.625 2.83334C11.4041 2.83334 12.0712 3.11077 12.626 3.66563C13.1809 4.22049 13.4583 4.8875 13.4583 5.66667C13.4583 6.44584 13.1809 7.11285 12.626 7.66771Z" fill="black"/>
</svg>
