<svg width="20" height="20" viewBox="0 0 20 20" fill="none" xmlns="http://www.w3.org/2000/svg">
<path d="M16.4997 18.8333L12.9997 15.3749C12.5136 15.5277 12.024 15.6423 11.5309 15.7187C11.0379 15.7951 10.5275 15.8333 9.99967 15.8333C7.90245 15.8333 6.0344 15.2534 4.39551 14.0937C2.75662 12.9339 1.56912 11.4305 0.833008 9.58325C1.12467 8.84714 1.49273 8.16311 1.93717 7.53117C2.38162 6.89922 2.88856 6.33325 3.45801 5.83325L1.16634 3.49992L2.33301 2.33325L17.6663 17.6666L16.4997 18.8333ZM9.99967 13.3333C10.1525 13.3333 10.2948 13.3263 10.4268 13.3124C10.5587 13.2985 10.7011 13.2708 10.8538 13.2291L6.35384 8.72909C6.31217 8.88186 6.2844 9.02422 6.27051 9.15617C6.25662 9.28811 6.24967 9.43047 6.24967 9.58325C6.24967 10.6249 6.61426 11.5103 7.34342 12.2395C8.07259 12.9687 8.95801 13.3333 9.99967 13.3333ZM16.083 13.7083L13.4372 11.0833C13.5344 10.8471 13.6108 10.6076 13.6663 10.3645C13.7219 10.1214 13.7497 9.86103 13.7497 9.58325C13.7497 8.54159 13.3851 7.65617 12.6559 6.927C11.9268 6.19784 11.0413 5.83325 9.99967 5.83325C9.7219 5.83325 9.46148 5.86103 9.21842 5.91659C8.97537 5.97214 8.73579 6.05547 8.49967 6.16659L6.37467 4.04159C6.94412 3.80547 7.52745 3.62839 8.12467 3.51034C8.7219 3.39228 9.3469 3.33325 9.99967 3.33325C12.0969 3.33325 13.965 3.91311 15.6038 5.07284C17.2427 6.23256 18.4302 7.73603 19.1663 9.58325C18.8469 10.4027 18.4268 11.1631 17.9059 11.8645C17.3851 12.5659 16.7775 13.1805 16.083 13.7083ZM12.2288 9.87492L9.72884 7.37492C10.1177 7.30547 10.4754 7.33672 10.8018 7.46867C11.1281 7.60061 11.4094 7.79159 11.6455 8.04159C11.8816 8.29159 12.0518 8.57978 12.1559 8.90617C12.2601 9.23256 12.2844 9.55547 12.2288 9.87492Z" fill="#CCCCCC"/>
</svg>
