<svg width="40" height="40" viewBox="0 0 40 40" fill="none" xmlns="http://www.w3.org/2000/svg">
<circle cx="20" cy="20" r="20" fill=""/>
<path d="M15.5 14C15.0833 14 14.7292 14.1458 14.4375 14.4375C14.1458 14.7292 14 15.0833 14 15.5C14 15.9167 14.1458 16.2708 14.4375 16.5625C14.7292 16.8542 15.0833 17 15.5 17C15.9167 17 16.2708 16.8542 16.5625 16.5625C16.8542 16.2708 17 15.9167 17 15.5C17 15.0833 16.8542 14.7292 16.5625 14.4375C16.2708 14.1458 15.9167 14 15.5 14ZM15.5 24C15.0833 24 14.7292 24.1458 14.4375 24.4375C14.1458 24.7292 14 25.0833 14 25.5C14 25.9167 14.1458 26.2708 14.4375 26.5625C14.7292 26.8542 15.0833 27 15.5 27C15.9167 27 16.2708 26.8542 16.5625 26.5625C16.8542 26.2708 17 25.9167 17 25.5C17 25.0833 16.8542 24.7292 16.5625 24.4375C16.2708 24.1458 15.9167 24 15.5 24ZM12 11H28C28.2833 11 28.5208 11.0958 28.7125 11.2875C28.9042 11.4792 29 11.7167 29 12V19C29 19.2833 28.9042 19.5208 28.7125 19.7125C28.5208 19.9042 28.2833 20 28 20H12C11.7167 20 11.4792 19.9042 11.2875 19.7125C11.0958 19.5208 11 19.2833 11 19V12C11 11.7167 11.0958 11.4792 11.2875 11.2875C11.4792 11.0958 11.7167 11 12 11ZM12 21H28C28.2833 21 28.5208 21.0958 28.7125 21.2875C28.9042 21.4792 29 21.7167 29 22V29C29 29.2833 28.9042 29.5208 28.7125 29.7125C28.5208 29.9042 28.2833 30 28 30H12C11.7167 30 11.4792 29.9042 11.2875 29.7125C11.0958 29.5208 11 29.2833 11 29V22C11 21.7167 11.0958 21.4792 11.2875 21.2875C11.4792 21.0958 11.7167 21 12 21Z" fill="black"/>
</svg>
