<svg width="11" height="12" viewBox="0 0 11 12" fill="none" xmlns="http://www.w3.org/2000/svg">
<path d="M9.16667 12C8.65741 12 8.22454 11.825 7.86806 11.475C7.51157 11.125 7.33333 10.7 7.33333 10.2C7.33333 10.14 7.34861 10 7.37917 9.78L3.08611 7.32C2.92315 7.47 2.73472 7.5875 2.52083 7.6725C2.30694 7.7575 2.07778 7.8 1.83333 7.8C1.32407 7.8 0.891204 7.625 0.534722 7.275C0.178241 6.925 0 6.5 0 6C0 5.5 0.178241 5.075 0.534722 4.725C0.891204 4.375 1.32407 4.2 1.83333 4.2C2.07778 4.2 2.30694 4.2425 2.52083 4.3275C2.73472 4.4125 2.92315 4.53 3.08611 4.68L7.37917 2.22C7.3588 2.15 7.34607 2.0825 7.34097 2.0175C7.33588 1.9525 7.33333 1.88 7.33333 1.8C7.33333 1.3 7.51157 0.875 7.86806 0.525C8.22454 0.175 8.65741 0 9.16667 0C9.67593 0 10.1088 0.175 10.4653 0.525C10.8218 0.875 11 1.3 11 1.8C11 2.3 10.8218 2.725 10.4653 3.075C10.1088 3.425 9.67593 3.6 9.16667 3.6C8.92222 3.6 8.69306 3.5575 8.47917 3.4725C8.26528 3.3875 8.07685 3.27 7.91389 3.12L3.62083 5.58C3.6412 5.65 3.65394 5.7175 3.65903 5.7825C3.66412 5.8475 3.66667 5.92 3.66667 6C3.66667 6.08 3.66412 6.1525 3.65903 6.2175C3.65394 6.2825 3.6412 6.35 3.62083 6.42L7.91389 8.88C8.07685 8.73 8.26528 8.6125 8.47917 8.5275C8.69306 8.4425 8.92222 8.4 9.16667 8.4C9.67593 8.4 10.1088 8.575 10.4653 8.925C10.8218 9.275 11 9.7 11 10.2C11 10.7 10.8218 11.125 10.4653 11.475C10.1088 11.825 9.67593 12 9.16667 12Z" fill="black"/>
</svg>
