<svg width="20" height="20" viewBox="0 0 20 20" fill="none" xmlns="http://www.w3.org/2000/svg">
<path d="M9.16675 14.1667H5.83341C4.68064 14.1667 3.698 13.7604 2.8855 12.9479C2.073 12.1354 1.66675 11.1528 1.66675 10C1.66675 8.84723 2.073 7.86459 2.8855 7.05209C3.698 6.23959 4.68064 5.83334 5.83341 5.83334H9.16675V7.50001H5.83341C5.13897 7.50001 4.54869 7.74307 4.06258 8.22918C3.57647 8.71529 3.33341 9.30557 3.33341 10C3.33341 10.6945 3.57647 11.2847 4.06258 11.7708C4.54869 12.257 5.13897 12.5 5.83341 12.5H9.16675V14.1667ZM6.66675 10.8333V9.16668H13.3334V10.8333H6.66675ZM10.8334 14.1667V12.5H14.1667C14.8612 12.5 15.4515 12.257 15.9376 11.7708C16.4237 11.2847 16.6667 10.6945 16.6667 10C16.6667 9.30557 16.4237 8.71529 15.9376 8.22918C15.4515 7.74307 14.8612 7.50001 14.1667 7.50001H10.8334V5.83334H14.1667C15.3195 5.83334 16.3022 6.23959 17.1147 7.05209C17.9272 7.86459 18.3334 8.84723 18.3334 10C18.3334 11.1528 17.9272 12.1354 17.1147 12.9479C16.3022 13.7604 15.3195 14.1667 14.1667 14.1667H10.8334Z" fill="#333333"/>
</svg>
